<mxfile host="app.diagrams.net" agent="Mozilla/5.0 (Windows NT 10.0; Win64; x64) AppleWebKit/537.36 (KHTML, like Gecko) Chrome/131.0.0.0 Safari/537.36" version="25.0.1">
  <diagram name="Trang-1" id="qfJ82RgBL_HqTFdsSqK3">
    <mxGraphModel dx="1235" dy="614" grid="1" gridSize="10" guides="1" tooltips="1" connect="1" arrows="1" fold="1" page="1" pageScale="1" pageWidth="827" pageHeight="1169" math="0" shadow="0">
      <root>
        <mxCell id="0" />
        <mxCell id="1" parent="0" />
        <mxCell id="8-r-kGJxuZKpA3dl5rDM-5" style="edgeStyle=orthogonalEdgeStyle;rounded=0;orthogonalLoop=1;jettySize=auto;html=1;entryX=0.5;entryY=0;entryDx=0;entryDy=0;" edge="1" parent="1" source="8-r-kGJxuZKpA3dl5rDM-1" target="8-r-kGJxuZKpA3dl5rDM-2">
          <mxGeometry relative="1" as="geometry" />
        </mxCell>
        <mxCell id="8-r-kGJxuZKpA3dl5rDM-1" value="Start" style="ellipse;whiteSpace=wrap;html=1;" vertex="1" parent="1">
          <mxGeometry x="410" y="90" width="120" height="80" as="geometry" />
        </mxCell>
        <mxCell id="8-r-kGJxuZKpA3dl5rDM-6" style="edgeStyle=orthogonalEdgeStyle;rounded=0;orthogonalLoop=1;jettySize=auto;html=1;entryX=0.5;entryY=0;entryDx=0;entryDy=0;" edge="1" parent="1" source="8-r-kGJxuZKpA3dl5rDM-2" target="8-r-kGJxuZKpA3dl5rDM-3">
          <mxGeometry relative="1" as="geometry" />
        </mxCell>
        <mxCell id="8-r-kGJxuZKpA3dl5rDM-2" value="int x" style="shape=parallelogram;perimeter=parallelogramPerimeter;whiteSpace=wrap;html=1;fixedSize=1;" vertex="1" parent="1">
          <mxGeometry x="410" y="230" width="120" height="60" as="geometry" />
        </mxCell>
        <mxCell id="8-r-kGJxuZKpA3dl5rDM-10" style="edgeStyle=orthogonalEdgeStyle;rounded=0;orthogonalLoop=1;jettySize=auto;html=1;entryX=0.5;entryY=0;entryDx=0;entryDy=0;" edge="1" parent="1" source="8-r-kGJxuZKpA3dl5rDM-3" target="8-r-kGJxuZKpA3dl5rDM-13">
          <mxGeometry relative="1" as="geometry">
            <mxPoint x="360" y="380" as="targetPoint" />
          </mxGeometry>
        </mxCell>
        <mxCell id="8-r-kGJxuZKpA3dl5rDM-18" value="False" style="edgeLabel;html=1;align=center;verticalAlign=middle;resizable=0;points=[];" vertex="1" connectable="0" parent="8-r-kGJxuZKpA3dl5rDM-10">
          <mxGeometry x="-0.2" y="-1" relative="1" as="geometry">
            <mxPoint as="offset" />
          </mxGeometry>
        </mxCell>
        <mxCell id="8-r-kGJxuZKpA3dl5rDM-20" style="edgeStyle=orthogonalEdgeStyle;rounded=0;orthogonalLoop=1;jettySize=auto;html=1;" edge="1" parent="1" source="8-r-kGJxuZKpA3dl5rDM-3" target="8-r-kGJxuZKpA3dl5rDM-8">
          <mxGeometry relative="1" as="geometry" />
        </mxCell>
        <mxCell id="8-r-kGJxuZKpA3dl5rDM-21" value="True" style="edgeLabel;html=1;align=center;verticalAlign=middle;resizable=0;points=[];" vertex="1" connectable="0" parent="8-r-kGJxuZKpA3dl5rDM-20">
          <mxGeometry x="-0.452" y="1" relative="1" as="geometry">
            <mxPoint as="offset" />
          </mxGeometry>
        </mxCell>
        <mxCell id="8-r-kGJxuZKpA3dl5rDM-3" value="n % 2 == 0" style="rhombus;whiteSpace=wrap;html=1;" vertex="1" parent="1">
          <mxGeometry x="430" y="340" width="80" height="80" as="geometry" />
        </mxCell>
        <mxCell id="8-r-kGJxuZKpA3dl5rDM-15" style="edgeStyle=orthogonalEdgeStyle;rounded=0;orthogonalLoop=1;jettySize=auto;html=1;entryX=1;entryY=0.5;entryDx=0;entryDy=0;" edge="1" parent="1" source="8-r-kGJxuZKpA3dl5rDM-8" target="8-r-kGJxuZKpA3dl5rDM-16">
          <mxGeometry relative="1" as="geometry">
            <mxPoint x="590" y="620" as="targetPoint" />
            <Array as="points">
              <mxPoint x="640" y="625" />
            </Array>
          </mxGeometry>
        </mxCell>
        <mxCell id="8-r-kGJxuZKpA3dl5rDM-8" value="Chẵn" style="shape=parallelogram;perimeter=parallelogramPerimeter;whiteSpace=wrap;html=1;fixedSize=1;" vertex="1" parent="1">
          <mxGeometry x="580" y="450" width="120" height="60" as="geometry" />
        </mxCell>
        <mxCell id="8-r-kGJxuZKpA3dl5rDM-14" style="edgeStyle=orthogonalEdgeStyle;rounded=0;orthogonalLoop=1;jettySize=auto;html=1;entryX=0;entryY=0.5;entryDx=0;entryDy=0;" edge="1" parent="1" source="8-r-kGJxuZKpA3dl5rDM-13" target="8-r-kGJxuZKpA3dl5rDM-16">
          <mxGeometry relative="1" as="geometry">
            <mxPoint x="340" y="640" as="targetPoint" />
            <Array as="points">
              <mxPoint x="300" y="625" />
            </Array>
          </mxGeometry>
        </mxCell>
        <mxCell id="8-r-kGJxuZKpA3dl5rDM-13" value="Lẻ" style="shape=parallelogram;perimeter=parallelogramPerimeter;whiteSpace=wrap;html=1;fixedSize=1;" vertex="1" parent="1">
          <mxGeometry x="240" y="450" width="120" height="60" as="geometry" />
        </mxCell>
        <mxCell id="8-r-kGJxuZKpA3dl5rDM-16" value="End" style="ellipse;whiteSpace=wrap;html=1;" vertex="1" parent="1">
          <mxGeometry x="420" y="585" width="120" height="80" as="geometry" />
        </mxCell>
      </root>
    </mxGraphModel>
  </diagram>
</mxfile>
